Coordinates
version=1
nRows=10
nColumns=40
inDegrees=yes
endheader
time	pelvis_tilt	pelvis_list	pelvis_rotation	pelvis_tx	pelvis_ty	pelvis_tz	hip_flexion_r	hip_adduction_r	hip_rotation_r	knee_angle_r	knee_angle_r_beta	ankle_angle_r	subtalar_angle_r	mtp_angle_r	hip_flexion_l	hip_adduction_l	hip_rotation_l	knee_angle_l	knee_angle_l_beta	ankle_angle_l	subtalar_angle_l	mtp_angle_l	lumbar_extension	lumbar_bending	lumbar_rotation	arm_flex_r	arm_add_r	arm_rot_r	elbow_flex_r	pro_sup_r	wrist_flex_r	wrist_dev_r	arm_flex_l	arm_add_l	arm_rot_l	elbow_flex_l	pro_sup_l	wrist_flex_l	wrist_dev_l
1760624777.95199990	      4.16306320	      0.32508380	     -0.08286388	      0.06240725	      0.94659331	      0.00597504	     80.00000000	     -7.00000000	      0.00000000	     80.00000000	      1.39626340	      0.00000000	      0.00000000	      0.00000000	     80.00000000	     -7.00000000	      0.00000000	     80.00000000	      1.39626340	      0.00000000	      0.00000000	      0.00000000	     -5.80994001	     -0.18379138	      0.02384078	      3.06639971	     -2.94955648	     -0.02056366	      9.41368093	      0.00000000	     -6.28397597	     -3.12156220	      2.43665368	     -1.41196347	      0.01425824	      0.63725292	      0.10602920	      2.70369497	     -1.48247419
1760624777.98600006	      4.15117037	      0.32836083	     -0.07922420	      0.06297748	      0.94735998	      0.00548747	     80.00000000	     -7.00000000	      0.00000000	     80.00000000	      1.39626340	      0.00000000	      0.00000000	      0.00000000	     80.00000000	     -7.00000000	      0.00000000	     80.00000000	      1.39626340	      0.00000000	      0.00000000	      0.00000000	     -5.81723576	     -0.17971767	      0.02880888	      3.08683885	     -2.96152785	      0.01378035	      9.42475766	      0.00000000	     -6.28781842	     -3.12751685	      2.43979304	     -1.43114573	      0.05131017	      0.65187835	      0.09606266	      2.71135619	     -1.48626200
1760624778.01900005	      4.17220328	      0.33648540	     -0.07386633	      0.06414264	      0.94962377	      0.00539450	     80.00000000	     -7.00000000	      0.00000000	     80.00000000	      1.39626340	      0.00000000	      0.00000000	      0.00000000	     80.00000000	     -7.00000000	      0.00000000	     80.00000000	      1.39626340	      0.00000000	      0.00000000	      0.00000000	     -5.83922223	     -0.21175244	      0.05203386	      3.09806965	     -2.93228880	     -0.02513523	      9.63438031	      0.01962231	     -6.46728067	     -3.19360596	      2.43842883	     -1.45936740	      0.13385948	      0.67677091	      0.03722734	      2.86010283	     -1.46452982
1760624778.05299997	      4.05017409	      0.33539600	     -0.06515681	      0.06222147	      0.95001040	      0.00534781	     80.00000000	     -7.00000000	      0.00000000	     80.00000000	      1.39626340	      0.00000000	      0.00000000	      0.00000000	     80.00000000	     -7.00000000	      0.00000000	     80.00000000	      1.39626340	      0.00000000	      0.00000000	      0.00000000	     -5.71531112	     -0.20147755	      0.04777509	      3.02863974	     -2.93661418	     -0.08064382	      9.45037705	      0.18332356	     -6.35990072	     -3.14735009	      2.42384216	     -1.45090176	      0.12909564	      0.69256154	      0.07832270	      2.82440523	     -1.43301057
1760624778.08599997	      4.05739938	      0.33593542	     -0.06096515	      0.06260010	      0.95104095	      0.00560225	     80.00000000	     -7.00000000	      0.00000000	     80.00000000	      1.39626340	      0.00000000	      0.00000000	      0.00000000	     80.00000000	     -7.00000000	      0.00000000	     80.00000000	      1.39626340	      0.00000000	      0.00000000	      0.00000000	     -5.76372614	     -0.21781768	      0.03907259	      3.06830475	     -2.91919020	     -0.04696589	      9.54842874	      0.19537387	     -6.35002507	     -3.19518997	      2.44264317	     -1.47647677	      0.15045901	      0.68982168	      0.13471835	      2.82926112	     -1.41573134
1760624778.11999989	      4.07941577	      0.34402152	     -0.04230623	      0.06394532	      0.95187655	      0.00572367	     80.00000000	     -7.00000000	      0.00000000	     80.00000000	      1.39626340	      0.00000000	      0.00000000	      0.00000000	     80.00000000	     -7.00000000	      0.00000000	     80.00000000	      1.39626340	      0.00000000	      0.00000000	      0.00000000	     -5.80494578	     -0.21507044	      0.05023458	      3.08468124	     -2.94869877	     -0.09606073	      9.61476349	      0.25225112	     -6.39986949	     -3.21097201	      2.44039962	     -1.46496426	      0.22489901	      0.69119338	      0.12302103	      2.82970175	     -1.43280600
1760624778.15300012	      4.08196947	      0.35313796	     -0.03388412	      0.06391896	      0.95219883	      0.00572794	     80.00000000	     -7.00000000	      0.00000000	     80.00000000	      1.39626340	      0.00000000	      0.00000000	      0.00000000	     80.00000000	     -7.00000000	      0.00000000	     80.00000000	      1.39626340	      0.00000000	      0.00000000	      0.00000000	     -5.87074424	     -0.20792292	      0.04665070	      3.13562907	     -2.98181534	     -0.12299634	      9.62138714	      0.36140463	     -6.43750001	     -3.21401899	      2.48684960	     -1.45340426	      0.23865459	      0.69297337	      0.05045516	      2.82248889	     -1.42944097
1760624778.18700004	      4.06908866	      0.33905756	     -0.02551237	      0.06395263	      0.95429675	      0.00577031	     80.00000000	     -7.00000000	      0.00000000	     80.00000000	      1.39626340	      0.00000000	      0.00000000	      0.00000000	     80.00000000	     -7.00000000	      0.00000000	     80.00000000	      1.39626340	      0.00000000	      0.00000000	      0.00000000	     -5.88989098	     -0.22376629	      0.04377860	      3.17171038	     -2.97714435	     -0.15241126	      9.66065198	      0.41368365	     -6.44176383	     -3.21863502	      2.49298450	     -1.48227222	      0.26325395	      0.71715390	      0.00000000	      2.82292896	     -1.43813464
1760624778.22000003	      4.22731018	      0.34646958	      0.00189741	      0.06632461	      0.95530149	      0.00569042	     80.00000000	     -7.00000000	      0.00000000	     80.00000000	      1.39626340	      0.00000000	      0.00000000	      0.00000000	     80.00000000	     -7.00000000	      0.00000000	     80.00000000	      1.39626340	      0.00000000	      0.00000000	      0.00000000	     -6.12608522	     -0.22192047	      0.04603662	      3.27011427	     -2.99303810	     -0.23779306	      9.99923816	      0.51313844	     -6.70974256	     -3.29138790	      2.58954661	     -1.48445770	      0.25138344	      0.72930095	      0.04762996	      2.90949861	     -1.44814455
1760624778.25300002	      4.31301399	      0.34119010	      0.02023035	      0.06761628	      0.95554979	      0.00577187	     80.00000000	     -7.00000000	      0.00000000	     80.00000000	      1.39626340	      0.00000000	      0.00000000	      0.00000000	     80.00000000	     -7.00000000	      0.00000000	     80.00000000	      1.39626340	      0.00000000	      0.00000000	      0.00000000	     -6.30079528	     -0.19813055	      0.05640195	      3.39024168	     -3.01186340	     -0.29158000	     10.27361757	      0.53855712	     -6.98782006	     -3.35401097	      2.69339047	     -1.48104845	      0.23078605	      0.73189424	      0.07818815	      2.96041462	     -1.42494353
